<svg width="64" height="64" viewBox="0 0 64 64" fill="none" xmlns="http://www.w3.org/2000/svg">
<rect width="64" height="64" rx="32" fill="#FFEC3D"/>
<path d="M25.0898 18.4062C25.0898 19.8008 25.4453 22.9453 25.7734 24.6133L28.3438 37.8203C29.5195 37.082 30.9414 36.6719 32.5 36.6719C34.0586 36.6719 35.4805 37.082 36.6836 37.793L39.2266 24.6133C39.5547 22.9453 39.9102 19.8008 39.9102 18.4062C39.9102 14.168 37.0938 10.8047 32.5 10.8047C27.9062 10.8047 25.0898 14.168 25.0898 18.4062ZM25.1992 44.5195C25.1992 40.3633 28.3438 37.2188 32.5 37.2188C36.6836 37.2188 39.8008 40.3633 39.8008 44.5195C39.8008 48.6758 36.6562 51.8203 32.5 51.8203C28.3438 51.8203 25.1992 48.6758 25.1992 44.5195ZM26.5664 17.2578C26.5664 17.1484 26.5938 16.9844 26.6211 16.8203C26.9492 15.043 28.3984 12.7734 31.1055 12.3086C31.2969 12.2812 31.3789 12.2812 31.4609 12.2812C31.6523 12.2812 31.7344 12.3906 31.7344 12.5273C31.7344 12.6641 31.5977 12.8008 31.3516 12.8281C29 13.1016 27.3594 15.1523 27.1133 17.2578C27.0859 17.4219 26.9766 17.5312 26.8398 17.5312C26.7031 17.5312 26.5664 17.4219 26.5664 17.2578ZM26.7305 43.3438C26.7305 43.5352 26.8672 43.6445 27.0039 43.6445C27.1406 43.6445 27.25 43.5352 27.2773 43.3711C27.5508 41.6211 28.9453 39.7617 30.9688 39.3789C31.1328 39.3516 31.2695 39.2695 31.2695 39.1055C31.2695 38.9688 31.1875 38.832 30.9961 38.832C30.9141 38.832 30.7227 38.8594 30.6133 38.8867C28.3711 39.4336 27.1406 41.4844 26.7852 42.9336C26.7578 43.0977 26.7305 43.2344 26.7305 43.3438Z" fill="white"/>
<path fill-rule="evenodd" clip-rule="evenodd" d="M25.7734 24.6133C25.4453 22.9453 25.0898 19.8008 25.0898 18.4062C25.0898 14.168 27.9062 10.8047 32.5 10.8047C37.0938 10.8047 39.9102 14.168 39.9102 18.4062C39.9102 19.8008 39.5547 22.9453 39.2266 24.6133L36.6836 37.793C36.3872 37.6178 36.0774 37.4609 35.7557 37.3239C34.7715 36.9048 33.6746 36.6719 32.5 36.6719C31.3299 36.6719 30.2369 36.903 29.2672 37.3306C28.9452 37.4726 28.6368 37.6363 28.3438 37.8203L25.7734 24.6133ZM27.3468 37.9322L24.7922 24.8063C24.7922 24.806 24.7923 24.8066 24.7922 24.8063C24.4554 23.0935 24.0898 19.8822 24.0898 18.4062C24.0898 16.0667 24.8689 13.9124 26.341 12.3341C27.8212 10.7469 29.9452 9.80469 32.5 9.80469C35.0548 9.80469 37.1788 10.7469 38.659 12.3341C40.1311 13.9124 40.9102 16.0667 40.9102 18.4062C40.9102 19.882 40.5449 23.0916 40.2081 24.8046C40.208 24.8051 40.2079 24.8057 40.2078 24.8063L37.6738 37.9391C39.6035 39.4365 40.8008 41.7913 40.8008 44.5195C40.8008 49.2281 37.2085 52.8203 32.5 52.8203C27.7915 52.8203 24.1992 49.2281 24.1992 44.5195C24.1992 41.7861 25.4099 39.4288 27.3468 37.9322ZM37.4573 39.0613C37.132 38.7675 36.7781 38.5041 36.3991 38.2745C35.2868 37.6008 33.9582 37.2188 32.5 37.2188C31.0563 37.2188 29.7347 37.5981 28.6246 38.2675C28.2454 38.4962 27.8909 38.7587 27.5646 39.0514C26.0959 40.3691 25.1992 42.3001 25.1992 44.5195C25.1992 48.6758 28.3438 51.8203 32.5 51.8203C36.6562 51.8203 39.8008 48.6758 39.8008 44.5195C39.8008 42.3056 38.9163 40.3787 37.4573 39.0613ZM26.7327 43.286C26.7312 43.306 26.7305 43.3253 26.7305 43.3438C26.7305 43.5352 26.8672 43.6445 27.0039 43.6445C27.1406 43.6445 27.25 43.5352 27.2773 43.3711C27.2788 43.362 27.2802 43.3529 27.2817 43.3438C27.2966 43.2522 27.3146 43.1604 27.3355 43.0686C27.3387 43.0547 27.3419 43.0408 27.3452 43.0269C27.3656 42.941 27.3887 42.855 27.4143 42.7693C27.8282 41.3815 28.9085 40.0386 30.4116 39.5259C30.5206 39.4887 30.6319 39.4559 30.7452 39.4278C30.7463 39.4275 30.7473 39.4272 30.7483 39.427C30.821 39.409 30.8944 39.393 30.9688 39.3789C30.978 39.3774 30.9871 39.3757 30.9961 39.3738C31.1477 39.3421 31.2695 39.2603 31.2695 39.1055C31.2695 38.9688 31.1875 38.832 30.9961 38.832C30.9676 38.832 30.9259 38.8353 30.8791 38.8408C30.8751 38.8412 30.8712 38.8417 30.8672 38.8422C30.7816 38.8526 30.6815 38.8697 30.6133 38.8867C30.4997 38.9144 30.3887 38.946 30.2803 38.9811C28.3811 39.5969 27.2733 41.3131 26.8612 42.6581C26.8325 42.7519 26.8072 42.8439 26.7852 42.9336C26.7805 42.9617 26.7758 42.9891 26.7712 43.0156C26.7541 43.1152 26.739 43.2035 26.7331 43.2804C26.7329 43.2823 26.7328 43.2841 26.7327 43.286ZM26.5689 17.1942C26.5673 17.2169 26.5664 17.2382 26.5664 17.2578C26.5664 17.4219 26.7031 17.5312 26.8398 17.5312C26.9766 17.5312 27.0859 17.4219 27.1133 17.2578C27.1264 17.1452 27.1436 17.0327 27.1646 16.9207C27.1652 16.9175 27.1658 16.9144 27.1664 16.9112C27.1835 16.8215 27.203 16.732 27.2249 16.6429C27.6498 14.9199 28.9873 13.3503 30.8478 12.9159C30.9577 12.8902 31.0695 12.8685 31.1829 12.8509C31.188 12.8502 31.1931 12.8494 31.1982 12.8486C31.249 12.8409 31.3001 12.8341 31.3516 12.8281C31.3908 12.8238 31.4273 12.8166 31.4609 12.8071C31.6378 12.7571 31.7344 12.6422 31.7344 12.5273C31.7344 12.3906 31.6523 12.2812 31.4609 12.2812C31.4121 12.2812 31.3633 12.2813 31.2914 12.287C31.2905 12.2871 31.2896 12.2872 31.2887 12.2872C31.2403 12.2912 31.1815 12.2977 31.1055 12.3086C30.9836 12.3295 30.8643 12.3541 30.7475 12.3821C28.4007 12.9455 27.0784 14.9011 26.6792 16.5486C26.657 16.6402 26.6376 16.7309 26.6211 16.8203C26.6005 16.9438 26.5799 17.0673 26.571 17.1674C26.5702 17.1765 26.5695 17.1855 26.5689 17.1942Z" fill="#101010"/>
</svg>
