<svg width="64" height="64" viewBox="0 0 64 64" fill="none" xmlns="http://www.w3.org/2000/svg">
<rect width="64" height="64" rx="32" fill="#C1FF3D"/>
<path d="M32.5859 52.4531C35.4922 52.4531 37.4375 50.5547 37.4375 48.4453C37.4375 48.1406 37.4141 47.8594 37.3906 47.5781C41.9844 45.7969 44.1641 41.5312 44.1641 36.9141C44.1641 32.1094 41.3281 28.1484 38.3516 26.5312C36.6641 26.5078 35.1406 26.2266 34.4609 26.0391C32.75 25.5703 31.1094 24.9141 30.4062 24.5391C30.1484 24.3984 30.0781 24.3281 30.0781 24.2109C30.0781 24.0938 30.1719 24.0234 30.2656 24.0234C30.5234 24.0234 31.0391 24.3281 31.3672 24.4688C32 24.75 33.3828 25.2891 34.7891 25.6406C36.3125 26.0156 37.9531 26.0625 39.4531 26.0625C42.2891 26.0625 44.3047 24.0703 44.3047 21.0234C44.3047 18.1406 42.0078 15.5625 37.8359 14.4141C37.7656 15.8203 37.5078 16.9922 36.9219 17.9531C36.8047 18.1406 36.7344 18.1406 36.6406 18.1406C36.5469 18.1406 36.4766 18.0703 36.4766 17.9531C36.4766 17.8359 36.5234 17.7188 36.5938 17.5781C37.0625 16.6406 37.3672 15.3516 37.3672 13.8516C37.3672 11.7422 35.4219 9.84375 32.5156 9.84375C29.6094 9.84375 27.6641 11.7422 27.6641 13.8516C27.6641 14.1328 27.6875 14.4141 27.7109 14.6719C23.1406 16.4531 20.8203 20.7656 20.8203 25.3359C20.8203 29.9062 22.9297 33.1172 25.6016 35.2031C27.6172 35.2031 29.1406 35.4844 29.8906 35.6953C31.6016 36.1641 33.2422 36.8203 33.9453 37.1953C34.2031 37.3359 34.2734 37.4062 34.2734 37.5234C34.2734 37.6406 34.1797 37.7109 34.0859 37.7109C33.8281 37.7109 33.3125 37.4062 32.9844 37.2656C32.3516 36.9844 30.9688 36.4453 29.5625 36.0938C28.0391 35.7188 26.3984 35.6719 24.8984 35.6719C22.0625 35.6719 20 37.8281 20 40.8984C20 44.3438 23 46.8281 27.2656 47.8828C27.3359 46.4766 27.5938 45.3047 28.1797 44.3438C28.2969 44.1562 28.3672 44.1562 28.4609 44.1562C28.5547 44.1562 28.625 44.2266 28.625 44.3438C28.625 44.4609 28.5781 44.5781 28.5078 44.7188C28.0391 45.6562 27.7344 46.9453 27.7344 48.4453C27.7344 50.5547 29.6797 52.4531 32.5859 52.4531ZM22.6484 21.5391C22.6484 21.4453 22.6719 21.3516 22.8125 20.9766C23.6797 18.7031 25.5781 16.7109 28.1797 15.7734C28.4141 15.6797 28.5781 15.6328 28.7422 15.6328C28.8828 15.6328 28.9766 15.7266 28.9766 15.8438C28.9766 15.9609 28.9297 16.0312 28.7422 16.1016C26.1641 16.9453 24.2422 18.7266 23.3281 20.9766C23.2578 21.1406 23.2109 21.3281 23.1406 21.4922C23.0703 21.6797 22.9766 21.7734 22.8594 21.7734C22.7422 21.7734 22.6484 21.7031 22.6484 21.5391Z" fill="white"/>
<path fill-rule="evenodd" clip-rule="evenodd" d="M39.2048 27.0621C38.9233 26.8643 38.6381 26.6869 38.3516 26.5312C36.8246 26.51 35.432 26.2777 34.6773 26.0948C34.6767 26.0947 34.6762 26.0946 34.6756 26.0944C34.5969 26.0753 34.5252 26.0568 34.4609 26.0391C33.2206 25.6993 32.0173 25.2609 31.1812 24.9026C31.1793 24.9018 31.1774 24.901 31.1755 24.9001C31.0644 24.8525 30.9599 24.8063 30.8626 24.7619C30.6844 24.6805 30.5306 24.6054 30.4062 24.5391C30.3512 24.509 30.3047 24.4822 30.2656 24.4575C30.1216 24.3663 30.0781 24.3031 30.0781 24.2109C30.0781 24.0938 30.1719 24.0234 30.2656 24.0234C30.3596 24.0234 30.4877 24.0639 30.6286 24.1221C30.63 24.1227 30.6314 24.1233 30.6327 24.1238C30.6958 24.15 30.7615 24.1797 30.8276 24.2109C30.9013 24.2456 30.9756 24.2822 31.048 24.3178C31.0554 24.3214 31.0628 24.3251 31.0702 24.3287C31.177 24.3812 31.2789 24.4309 31.3672 24.4688C31.9693 24.7363 33.2503 25.2373 34.5845 25.5881C34.5847 25.5882 34.585 25.5883 34.5853 25.5884C34.6531 25.6062 34.7211 25.6236 34.7891 25.6406C35.9488 25.9261 37.1764 26.0214 38.3582 26.0507C38.4423 26.0527 38.5262 26.0545 38.6098 26.0559C38.8946 26.0609 39.1763 26.0625 39.4531 26.0625C39.4729 26.0625 39.4926 26.0624 39.5123 26.0622C42.317 26.0347 44.3047 24.0491 44.3047 21.0234C44.3047 18.3759 42.3674 15.9853 38.8196 14.7232C38.6647 14.6681 38.5067 14.6151 38.3457 14.5644C38.1791 14.5119 38.0091 14.4617 37.8359 14.4141C37.8183 14.7665 37.7889 15.1042 37.7455 15.4276C37.649 16.1472 37.4831 16.7957 37.2236 17.3772C37.1605 17.5187 37.0918 17.6562 37.0172 17.7898C36.9864 17.8449 36.9547 17.8994 36.9219 17.9531C36.8047 18.1406 36.7344 18.1406 36.6406 18.1406C36.5469 18.1406 36.4766 18.0703 36.4766 17.9531C36.4766 17.8759 36.4969 17.7987 36.5309 17.7147C36.5316 17.7132 36.5322 17.7116 36.5329 17.71C36.5501 17.668 36.5706 17.6243 36.5938 17.5781C36.6096 17.5465 36.6252 17.5145 36.6406 17.482C36.6908 17.3766 36.739 17.2671 36.7849 17.1535C37.0926 16.3927 37.3009 15.4529 37.3539 14.39C37.3627 14.2138 37.3672 14.0342 37.3672 13.8516C37.3672 13.6425 37.3481 13.4356 37.3108 13.2323C36.9722 11.3846 35.1339 9.84375 32.5156 9.84375C29.6094 9.84375 27.6641 11.7422 27.6641 13.8516C27.6641 14.1328 27.6875 14.4141 27.7109 14.6719C23.1406 16.4531 20.8203 20.7656 20.8203 25.3359C20.8203 29.5347 22.6006 32.5861 24.9618 34.6719C25.1708 34.8565 25.3843 35.0335 25.6016 35.2031C27.4397 35.2031 28.8684 35.437 29.6746 35.6382C29.6752 35.6383 29.6757 35.6385 29.6763 35.6386C29.7535 35.6579 29.825 35.6769 29.8906 35.6953C31.1309 36.0351 32.3343 36.4735 33.1703 36.8318C33.1722 36.8326 33.1742 36.8334 33.1761 36.8342C33.2872 36.8819 33.3917 36.9281 33.4889 36.9725C33.6672 37.0538 33.8209 37.129 33.9453 37.1953C34.0004 37.2253 34.0468 37.2522 34.0859 37.2769C34.2299 37.3681 34.2734 37.4313 34.2734 37.5234C34.2734 37.6406 34.1797 37.7109 34.0859 37.7109C33.992 37.7109 33.8638 37.6705 33.7229 37.6122C33.7216 37.6117 33.7202 37.6111 33.7188 37.6105C33.6557 37.5843 33.5901 37.5546 33.5239 37.5234C33.4503 37.4887 33.376 37.4522 33.3036 37.4166C33.2962 37.4129 33.2887 37.4093 33.2814 37.4057C33.1746 37.3532 33.0727 37.3035 32.9844 37.2656C32.3823 36.998 31.1013 36.497 29.7671 36.1462C29.7661 36.146 29.765 36.1457 29.764 36.1454C29.697 36.1278 29.6298 36.1106 29.5625 36.0938C28.274 35.7766 26.9017 35.6941 25.6016 35.6763C25.4787 35.6746 25.3564 35.6734 25.2349 35.6728C25.122 35.6721 25.0099 35.6719 24.8984 35.6719C24.7982 35.6719 24.6989 35.6746 24.6007 35.6799C21.9193 35.8254 20 37.9366 20 40.8984C20 44.0717 22.545 46.4299 26.2798 47.6065C26.4361 47.6558 26.5945 47.7029 26.7549 47.748C26.923 47.7952 27.0933 47.8402 27.2656 47.8828C27.2832 47.5321 27.3124 47.196 27.3554 46.8741C27.4519 46.1526 27.6179 45.5025 27.878 44.9197C27.9411 44.7782 28.0098 44.6407 28.0844 44.507C28.1151 44.4519 28.1469 44.3975 28.1797 44.3438C28.2969 44.1562 28.3672 44.1562 28.4609 44.1562C28.5547 44.1562 28.625 44.2266 28.625 44.3438C28.625 44.421 28.6046 44.4982 28.5706 44.5821C28.57 44.5837 28.5694 44.5853 28.5687 44.5869C28.5515 44.6289 28.5309 44.6725 28.5078 44.7188C28.492 44.7504 28.4764 44.7824 28.4609 44.8148C28.4108 44.9202 28.3626 45.0298 28.3167 45.1434C28.0089 45.9042 27.8007 46.844 27.7477 47.9069C27.7389 48.0831 27.7344 48.2626 27.7344 48.4453C27.7344 48.6465 27.7521 48.8458 27.7866 49.0417C28.1143 50.8996 29.9569 52.4531 32.5859 52.4531C35.4922 52.4531 37.4375 50.5547 37.4375 48.4453C37.4375 48.1406 37.4141 47.8594 37.3906 47.5781C41.9844 45.7969 44.1641 41.5312 44.1641 36.9141C44.1641 32.5719 41.8478 28.9188 39.2048 27.0621ZM40.6797 26.95C43.1776 29.1239 45.1641 32.7296 45.1641 36.9141C45.1641 41.6157 43.0284 46.1131 38.434 48.2223C38.4362 48.2951 38.4375 48.3695 38.4375 48.4453C38.4375 51.2342 35.908 53.4531 32.5859 53.4531C29.3988 53.4531 26.9412 51.4108 26.7468 48.7822C22.4547 47.6455 19 44.9602 19 40.8984C19 37.7851 20.8714 35.3623 23.6373 34.797C21.4255 32.5739 19.8203 29.4586 19.8203 25.3359C19.8203 20.6608 22.0973 16.1369 26.6666 14.0295C26.665 13.9707 26.6641 13.9113 26.6641 13.8516C26.6641 11.0626 29.1936 8.84375 32.5156 8.84375C35.7058 8.84375 38.1651 10.8899 38.3553 13.5222C42.6221 14.7755 45.3047 17.5864 45.3047 21.0234C45.3047 22.7719 44.7224 24.2942 43.6578 25.3843C42.8631 26.1979 41.8378 26.7314 40.6797 26.95ZM22.8838 20.796C22.8756 20.8162 22.8674 20.8363 22.8594 20.8565C22.8434 20.8964 22.8278 20.9364 22.8125 20.9766C22.7581 21.1217 22.7212 21.2247 22.6965 21.3018C22.6941 21.3092 22.6919 21.3162 22.6897 21.3231C22.6562 21.431 22.6484 21.485 22.6484 21.5391C22.6484 21.7031 22.7422 21.7734 22.8594 21.7734C22.9664 21.7734 23.0538 21.6953 23.1217 21.5391C23.1282 21.5241 23.1345 21.5085 23.1406 21.4922C23.1758 21.4102 23.2051 21.3223 23.2344 21.2344C23.2439 21.2057 23.2535 21.177 23.2633 21.1485C23.2636 21.1476 23.2639 21.1468 23.2642 21.1459C23.284 21.088 23.3048 21.031 23.3281 20.9766C23.3326 20.9656 23.3371 20.9546 23.3416 20.9437C24.1871 18.8887 25.8753 17.2283 28.1367 16.3216C28.2065 16.2937 28.2768 16.2664 28.3478 16.2398C28.3531 16.2378 28.3585 16.2358 28.3638 16.2338C28.4883 16.1875 28.6144 16.1434 28.7422 16.1016C28.9297 16.0312 28.9766 15.9609 28.9766 15.8438C28.9766 15.7266 28.8828 15.6328 28.7422 15.6328C28.6931 15.6328 28.6439 15.637 28.5929 15.6454C28.5861 15.6465 28.5793 15.6477 28.5725 15.649C28.4587 15.67 28.3346 15.7115 28.1797 15.7734C28.1164 15.7963 28.0535 15.8197 27.991 15.8438C27.9862 15.8456 27.9814 15.8475 27.9766 15.8493C25.5557 16.786 23.769 18.6446 22.8927 20.7743C22.8909 20.7787 22.889 20.7832 22.8872 20.7876C22.8861 20.7904 22.8849 20.7932 22.8838 20.796Z" fill="#101010"/>
</svg>
