<svg width="64" height="64" viewBox="0 0 64 64" fill="none" xmlns="http://www.w3.org/2000/svg">
<rect width="64" height="64" rx="32" fill="#F7ECCF"/>
<path fill-rule="evenodd" clip-rule="evenodd" d="M48.7148 18.2148C50.401 19.8611 50.432 22.5612 48.7839 24.2456L28.7554 44.7162C27.9522 45.5372 26.8515 46 25.7023 46C24.5531 46 23.4524 45.5372 22.6491 44.7162L14.2161 36.097C12.568 34.4126 12.599 31.7125 14.2852 30.0662C15.9714 28.4199 18.6743 28.4508 20.3224 30.1352L25.7023 35.6339L42.6776 18.2838C44.3257 16.5994 47.0286 16.5685 48.7148 18.2148Z" fill="white"/>
<path fill-rule="evenodd" clip-rule="evenodd" d="M42.3202 17.9341C44.1613 16.0525 47.1805 16.018 49.0641 17.857C50.9481 19.6964 50.9826 22.7133 49.1413 24.5953L29.1128 45.0659C28.2154 45.983 26.9859 46.5 25.7023 46.5C24.4186 46.5 23.1891 45.983 22.2917 45.0659L13.8587 36.4467C12.0174 34.5647 12.0519 31.5478 13.9359 29.7084C15.8195 27.8694 18.8388 27.9039 20.6798 29.7855L25.7023 34.9189L42.3202 17.9341ZM48.3655 18.5725C46.8767 17.119 44.4901 17.1463 43.035 18.6335L26.0597 35.9835C25.9656 36.0797 25.8368 36.1339 25.7023 36.1339C25.5678 36.1339 25.439 36.0797 25.3449 35.9835L19.965 30.4849C18.5099 28.9977 16.1233 28.9704 14.6345 30.4239C13.146 31.8772 13.1187 34.2604 14.5735 35.7473L23.0065 44.3665C23.7157 45.0913 24.6875 45.5 25.7023 45.5C26.7171 45.5 27.6889 45.0913 28.398 44.3665L48.4265 23.8959C49.8813 22.409 49.854 20.0258 48.3655 18.5725Z" fill="#101010"/>
</svg>
